<?xml version="1.0" encoding="UTF-8" standalone="no"?>
<!-- Created with Inkscape (http://www.inkscape.org/) -->

<svg
   xmlns:dc="http://purl.org/dc/elements/1.1/"
   xmlns:cc="http://creativecommons.org/ns#"
   xmlns:rdf="http://www.w3.org/1999/02/22-rdf-syntax-ns#"
   xmlns:svg="http://www.w3.org/2000/svg"
   xmlns="http://www.w3.org/2000/svg"
   xmlns:sodipodi="http://sodipodi.sourceforge.net/DTD/sodipodi-0.dtd"
   xmlns:inkscape="http://www.inkscape.org/namespaces/inkscape"
   width="1077.5125"
   height="270.39999"
   id="svg3962"
   version="1.1"
   inkscape:version="0.91 r13725"
   sodipodi:docname="logogray.svg">
  <defs
     id="defs3964" />
  <sodipodi:namedview
     id="base"
     pagecolor="#ffffff"
     bordercolor="#666666"
     borderopacity="1.0"
     inkscape:pageopacity="0.0"
     inkscape:pageshadow="2"
     inkscape:zoom="1.3122818"
     inkscape:cx="422.58467"
     inkscape:cy="81.658617"
     inkscape:document-units="pt"
     inkscape:current-layer="layer1"
     showgrid="false"
     inkscape:window-width="1920"
     inkscape:window-height="1013"
     inkscape:window-x="-9"
     inkscape:window-y="-9"
     inkscape:window-maximized="1"
     units="pt"
     fit-margin-top="0.1"
     fit-margin-left="0.1"
     fit-margin-right="0.1"
     fit-margin-bottom="0.1"
     objecttolerance="20"
     inkscape:showpageshadow="true" />
  <metadata
     id="metadata3967">
    <rdf:RDF>
      <cc:Work
         rdf:about="">
        <dc:format>image/svg+xml</dc:format>
        <dc:type
           rdf:resource="http://purl.org/dc/dcmitype/StillImage" />
        <dc:title />
      </cc:Work>
    </rdf:RDF>
  </metadata>
  <g
     inkscape:label="Layer 1"
     inkscape:groupmode="layer"
     id="layer1"
     transform="translate(-12.828141,-200.87273)">
    <path
       style="fill:#1d4087;fill-opacity:1;stroke:#fff36b;stroke-width:0.30000001;stroke-linecap:butt;stroke-linejoin:miter;stroke-miterlimit:10.10000038;stroke-dasharray:none;stroke-opacity:0"
       d="m 140.60155,214.9832 c -67.063143,0 -121.437493,54.37435 -121.437493,121.43749 0,67.06315 54.37435,121.4375 121.437493,121.4375 7.80903,0 15.44484,-0.74776 22.84375,-2.15625 l 0,-75.53125 c -6.37809,3.08012 -13.53626,4.8125 -21.09375,4.8125 -26.8179,0 -48.562503,-21.74461 -48.562503,-48.5625 0,-26.81788 21.744603,-48.56249 48.562503,-48.56249 7.55749,0 14.71566,1.73238 21.09375,4.8125 l 0,-75.53125 c -7.39891,-1.40849 -15.03472,-2.15625 -22.84375,-2.15625 z"
       id="path2987-1"
       inkscape:connector-curvature="0"
       inkscape:export-xdpi="90"
       inkscape:export-ydpi="90" />
    <path
       inkscape:connector-curvature="0"
       style="fill:#b5c9f0;fill-opacity:1;stroke:#fff36b;stroke-width:0.30186397;stroke-linecap:butt;stroke-linejoin:miter;stroke-miterlimit:10.10000038;stroke-dasharray:none;stroke-opacity:0"
       d="m 328.25018,319.68747 -136.75,136.78125 c 5.41968,0.74053 10.97076,1.125 16.59375,1.125 66.99809,0 121.3125,-54.31441 121.3125,-121.3125 0,-5.6336 -0.41297,-11.16428 -1.15625,-16.59375 z"
       id="path3879-7"
       inkscape:export-filename="C:\Users\A\path2987-1.png"
       inkscape:export-xdpi="90"
       inkscape:export-ydpi="90" />
    <path
       inkscape:connector-curvature="0"
       style="fill:#1d4087;fill-opacity:1;stroke:#fff36b;stroke-width:0.30186397;stroke-linecap:butt;stroke-linejoin:miter;stroke-miterlimit:10.10000038;stroke-dasharray:none;stroke-opacity:0"
       d="m 208.09393,214.96873 c -11.40185,0 -22.44427,1.5591 -32.90625,4.5 l 0,76.375 65.59375,0 0.1875,0.15625 c 0.21844,0.21844 0.21844,0.56281 0,0.78125 l -65.78125,65.78124 0,82.78125 147.875,-147.87499 c -16.1867,-47.96233 -61.54499,-82.5 -114.96875,-82.5 z"
       id="path3859-4"
       inkscape:export-filename="C:\Users\A\path2987-1.png"
       inkscape:export-xdpi="90"
       inkscape:export-ydpi="90" />
    <rect
       inkscape:export-filename="C:\Users\A\Documents\CHConza\chconza.github.io\logoBIG.png"
       inkscape:export-xdpi="499.51221"
       inkscape:export-ydpi="499.51221"
       style="opacity:0;fill:#8896e9;fill-opacity:0;stroke:#fff36b;stroke-width:1.78783834;stroke-linecap:butt;stroke-linejoin:miter;stroke-miterlimit:10.10000038;stroke-dasharray:none;stroke-opacity:0"
       id="rect3985"
       width="367.21783"
       height="367.21783"
       x="182.10536"
       y="103.03898"
       ry="4.4832578" />
    <g
       style="font-style:normal;font-variant:normal;font-weight:normal;font-stretch:normal;font-size:180px;line-height:125%;font-family:'Open Sans';-inkscape-font-specification:'Open Sans';letter-spacing:-1.88px;word-spacing:0px;fill:#ffffff;fill-opacity:1;stroke:none;stroke-width:1px;stroke-linecap:butt;stroke-linejoin:miter;stroke-opacity:1"
       id="text4137">
      <path
         d="m 465.41779,287.84528 q -15.38086,0 -23.81836,11.60156 -8.4375,11.51367 -8.4375,32.16797 0,42.97851 32.25586,42.97851 13.53515,0 32.7832,-6.76758 l 0,22.85157 q -15.82031,6.59179 -35.33203,6.59179 -28.03711,0 -42.89063,-16.96289 -14.85351,-17.05078 -14.85351,-48.86718 0,-20.03907 7.29492,-35.06836 7.29492,-15.11719 20.91797,-23.11524 13.71094,-8.08594 32.08008,-8.08594 18.7207,0 37.61718,9.05274 l -8.78906,22.14844 q -7.20703,-3.42774 -14.50195,-5.97657 -7.29492,-2.54882 -14.32617,-2.54882 z"
         style="font-style:normal;font-variant:normal;font-weight:bold;font-stretch:normal;font-family:'Open Sans';-inkscape-font-specification:'Open Sans Bold';letter-spacing:-1.88px;fill:#ffffff;fill-opacity:1"
         id="path4153" />
      <path
         d="m 640.19794,331.08746 q 0,31.9043 -15.82031,49.04297 -15.82031,17.13867 -45.35156,17.13867 -29.53125,0 -45.35156,-17.13867 -15.82032,-17.13867 -15.82032,-49.21875 0,-32.08008 15.82032,-48.95508 15.9082,-16.96289 45.52734,-16.96289 29.61914,0 45.26367,17.05078 15.73242,17.05079 15.73242,49.04297 z m -93.77929,0 q 0,21.53321 8.17383,32.43164 8.17382,10.89844 24.43359,10.89844 32.60742,0 32.60742,-43.33008 0,-43.41797 -32.43164,-43.41797 -16.25976,0 -24.52148,10.98633 -8.26172,10.89844 -8.26172,32.43164 z"
         style="font-style:normal;font-variant:normal;font-weight:bold;font-stretch:normal;font-family:'Open Sans';-inkscape-font-specification:'Open Sans Bold';letter-spacing:-1.88px;fill:#ffffff;fill-opacity:1"
         id="path4155" />
      <path
         d="m 779.11873,395.51129 -34.62891,0 -55.89844,-97.20703 -0.79101,0 q 1.66992,25.75195 1.66992,36.73828 l 0,60.46875 -24.3457,0 0,-128.49609 34.36523,0 55.81055,96.24023 0.61523,0 q -1.31836,-25.04883 -1.31836,-35.41992 l 0,-60.82031 24.52149,0 0,128.49609 z"
         style="font-style:normal;font-variant:normal;font-weight:bold;font-stretch:normal;font-family:'Open Sans';-inkscape-font-specification:'Open Sans Bold';letter-spacing:-1.88px;fill:#ffffff;fill-opacity:1"
         id="path4157" />
      <path
         d="m 893.25433,395.51129 -95.625,0 0,-17.66601 61.61133,-88.33008 -59.9414,0 0,-22.5 92.28515,0 0,17.57812 -61.52344,88.41797 63.19336,0 0,22.5 z"
         style="font-style:normal;font-variant:normal;font-weight:bold;font-stretch:normal;font-family:'Open Sans';-inkscape-font-specification:'Open Sans Bold';letter-spacing:-1.88px;fill:#ffffff;fill-opacity:1"
         id="path4159" />
      <path
         d="m 994.69117,395.51129 -9.31641,-30.58594 -46.8457,0 -9.31641,30.58594 -29.35547,0 45.35156,-129.02344 33.31055,0 45.52731,129.02344 z m -15.82032,-53.4375 c -8.61328,-27.71484 -13.47656,-43.38867 -14.58984,-47.02148 -1.05469,-3.63281 -1.81641,-6.50391 -2.28516,-8.61328 -1.93359,7.5 -7.4707,26.04492 -16.61133,55.63476 z"
         style="font-style:normal;font-variant:normal;font-weight:bold;font-stretch:normal;font-family:'Open Sans';-inkscape-font-specification:'Open Sans Bold';letter-spacing:-1.88px;fill:#ffffff;fill-opacity:1"
         id="path4161"
         inkscape:connector-curvature="0"
         sodipodi:nodetypes="cccccccccccccc" />
    </g>
  </g>
</svg>
